<svg xmlns="http://www.w3.org/2000/svg" xmlns:xlink="http://www.w3.org/1999/xlink" xmlns:lucid="lucid" width="1380" height="401"><g transform="translate(-380 -172)" lucid:page-tab-id="0_0"><path d="M420 245c0-2.76 2.24-5 5-5h370c2.76 0 5 2.24 5 5v126c0 2.76-2.24 5-5 5H425c-2.76 0-5-2.24-5-5z" fill="#fff"/><path d="M420 240h380v40H420z" fill="#ccc"/><path d="M420 245c0-2.76 2.24-5 5-5h370c2.76 0 5 2.24 5 5v126c0 2.76-2.24 5-5 5H425c-2.76 0-5-2.24-5-5zM420 280h380M616.95 280v96" stroke="#666" fill="none"/><use xlink:href="#a" transform="matrix(1,0,0,1,430,240) translate(0 23.6)"/><use xlink:href="#b" transform="matrix(1,0,0,1,425,282.5) translate(0 17.1)"/><use xlink:href="#c" transform="matrix(1,0,0,1,621.9493340327476,282.5) translate(0 17.1)"/><use xlink:href="#d" transform="matrix(1,0,0,1,425,314.5) translate(0 17.1)"/><use xlink:href="#e" transform="matrix(1,0,0,1,621.9493340327476,314.5) translate(0 17.1)"/><use xlink:href="#f" transform="matrix(1,0,0,1,425,346.5) translate(0 17.1)"/><use xlink:href="#g" transform="matrix(1,0,0,1,621.9493340327476,346.5) translate(0 17.1)"/><path d="M1340 245c0-2.76 2.24-5 5-5h370c2.76 0 5 2.24 5 5v222c0 2.76-2.24 5-5 5h-370c-2.76 0-5-2.24-5-5z" fill="#fff"/><path d="M1340 240h380v40h-380z" fill="#ccc"/><path d="M1340 245c0-2.76 2.24-5 5-5h370c2.76 0 5 2.24 5 5v222c0 2.76-2.24 5-5 5h-370c-2.76 0-5-2.24-5-5zM1340 280h380M1536.3 280v192" stroke="#666" fill="none"/><use xlink:href="#h" transform="matrix(1,0,0,1,1350,240) translate(0 23.6)"/><use xlink:href="#i" transform="matrix(1,0,0,1,1345,282.5) translate(0 17.1)"/><use xlink:href="#c" transform="matrix(1,0,0,1,1541.2886145656585,282.5) translate(0 17.1)"/><use xlink:href="#j" transform="matrix(1,0,0,1,1345,314.5) translate(0 17.1)"/><use xlink:href="#k" transform="matrix(1,0,0,1,1541.2886145656585,314.5) translate(0 17.1)"/><use xlink:href="#l" transform="matrix(1,0,0,1,1345,346.5) translate(0 17.1)"/><use xlink:href="#m" transform="matrix(1,0,0,1,1541.2886145656585,346.5) translate(0 17.1)"/><use xlink:href="#n" transform="matrix(1,0,0,1,1345,378.5) translate(0 17.1)"/><use xlink:href="#e" transform="matrix(1,0,0,1,1541.2886145656585,378.5) translate(0 17.1)"/><use xlink:href="#o" transform="matrix(1,0,0,1,1345,410.5) translate(0 17.1)"/><use xlink:href="#p" transform="matrix(1,0,0,1,1541.2886145656585,410.5) translate(0 17.1)"/><use xlink:href="#q" transform="matrix(1,0,0,1,1345,442.5) translate(0 17.1)"/><use xlink:href="#r" transform="matrix(1,0,0,1,1541.2886145656585,442.5) translate(0 17.1)"/><path d="M880 245c0-2.76 2.24-5 5-5h370c2.76 0 5 2.24 5 5v254c0 2.76-2.24 5-5 5H885c-2.76 0-5-2.24-5-5z" fill="#fff"/><path d="M880 240h380v40H880z" fill="#ccc"/><path d="M880 245c0-2.76 2.24-5 5-5h370c2.76 0 5 2.24 5 5v254c0 2.76-2.24 5-5 5H885c-2.76 0-5-2.24-5-5zM880 280h380M1076.3 280v224" stroke="#666" fill="none"/><use xlink:href="#s" transform="matrix(1,0,0,1,890,240) translate(0 23.6)"/><use xlink:href="#t" transform="matrix(1,0,0,1,885,282.5) translate(0 17.1)"/><use xlink:href="#c" transform="matrix(1,0,0,1,1081.2886145656585,282.5) translate(0 17.1)"/><use xlink:href="#b" transform="matrix(1,0,0,1,885,314.5) translate(0 17.1)"/><use xlink:href="#u" transform="matrix(1,0,0,1,1081.2886145656585,314.5) translate(0 17.1)"/><use xlink:href="#v" transform="matrix(1,0,0,1,885,346.5) translate(0 17.1)"/><use xlink:href="#w" transform="matrix(1,0,0,1,1081.2886145656585,346.5) translate(0 17.1)"/><use xlink:href="#i" transform="matrix(1,0,0,1,885,378.5) translate(0 17.1)"/><use xlink:href="#u" transform="matrix(1,0,0,1,1081.2886145656585,378.5) translate(0 17.1)"/><use xlink:href="#x" transform="matrix(1,0,0,1,885,410.5) translate(0 17.1)"/><use xlink:href="#p" transform="matrix(1,0,0,1,1081.2886145656585,410.5) translate(0 17.1)"/><use xlink:href="#y" transform="matrix(1,0,0,1,885,442.5) translate(0 17.1)"/><use xlink:href="#z" transform="matrix(1,0,0,1,1081.2886145656585,442.5) translate(0 17.1)"/><use xlink:href="#A" transform="matrix(1,0,0,1,885,474.5) translate(0 17.1)"/><use xlink:href="#B" transform="matrix(1,0,0,1,1081.2886145656585,474.5) translate(0 17.1)"/><path d="M801 296h27c6.63 0 12 5.37 12 12v8c0 6.63 5.37 12 12 12h7.5" stroke="#000" fill="none"/><path d="M801 296.5h-.5v-1h.5z"/><path d="M869.5 318v20M879.5 328h-20M859.5 318v20" stroke="#000" fill="#fff"/><path d="M1280.5 392h7.5c6.63 0 12-5.37 12-12v-72c0-6.63 5.37-12 12-12h27" stroke="#000" fill="none"/><path d="M1270.5 402v-20M1260.5 392h20M1280.5 402v-20" stroke="#000" fill="#fff"/><path d="M1339.5 296.5h-.5v-1h.5z"/><path d="M801 328.05h27c6.63 0 12 5.38 12 12v7.92c0 6.63 5.37 12 12 12h7.5" stroke="#000" fill="none"/><path d="M801 328.55h-.5v-1h.5z"/><path d="M869.5 349.97v20M879.5 359.97h-20M859.5 349.97v20" stroke="#000" fill="#fff"/><defs><path d="M232-93c-1 65-40 97-104 97C67 4 28-28 28-90v-158h33c8 89-33 224 67 224 102 0 64-133 71-224h33v155" id="C"/><path d="M135-143c-3-34-86-38-87 0 15 53 115 12 119 90S17 21 10-45l28-5c4 36 97 45 98 0-10-56-113-15-118-90-4-57 82-63 122-42 12 7 21 19 24 35" id="D"/><path d="M100-194c63 0 86 42 84 106H49c0 40 14 67 53 68 26 1 43-12 49-29l28 8c-11 28-37 45-77 45C44 4 14-33 15-96c1-61 26-98 85-98zm52 81c6-60-76-77-97-28-3 7-6 17-6 28h103" id="E"/><path d="M114-163C36-179 61-72 57 0H25l-1-190h30c1 12-1 29 2 39 6-27 23-49 58-41v29" id="F"/><g id="a"><use transform="matrix(0.05,0,0,0.05,0,0)" xlink:href="#C"/><use transform="matrix(0.05,0,0,0.05,12.950000000000001,0)" xlink:href="#D"/><use transform="matrix(0.05,0,0,0.05,21.950000000000003,0)" xlink:href="#E"/><use transform="matrix(0.05,0,0,0.05,31.950000000000003,0)" xlink:href="#F"/><use transform="matrix(0.05,0,0,0.05,37.900000000000006,0)" xlink:href="#D"/></g><path d="M84 4C-5 8 30-112 23-190h32v120c0 31 7 50 39 49 72-2 45-101 50-169h31l1 190h-30c-1-10 1-25-2-33-11 22-28 36-60 37" id="G"/><path d="M-5 72V49h209v23H-5" id="H"/><path d="M24-231v-30h32v30H24zM24 0v-190h32V0H24" id="I"/><path d="M85-194c31 0 48 13 60 33l-1-100h32l1 261h-30c-2-10 0-23-3-31C134-8 116 4 85 4 32 4 16-35 15-94c0-66 23-100 70-100zm9 24c-40 0-46 34-46 75 0 40 6 74 45 74 42 0 51-32 51-76 0-42-9-74-50-73" id="J"/><g id="b"><use transform="matrix(0.05,0,0,0.05,0,0)" xlink:href="#G"/><use transform="matrix(0.05,0,0,0.05,10,0)" xlink:href="#D"/><use transform="matrix(0.05,0,0,0.05,19,0)" xlink:href="#E"/><use transform="matrix(0.05,0,0,0.05,29,0)" xlink:href="#F"/><use transform="matrix(0.05,0,0,0.05,34.95,0)" xlink:href="#H"/><use transform="matrix(0.05,0,0,0.05,44.95,0)" xlink:href="#I"/><use transform="matrix(0.05,0,0,0.05,48.900000000000006,0)" xlink:href="#J"/></g><path d="M160-131c35 5 61 23 61 61C221 17 115-2 30 0v-248c76 3 177-17 177 60 0 33-19 50-47 57zm-97-11c50-1 110 9 110-42 0-47-63-36-110-37v79zm0 115c55-2 124 14 124-45 0-56-70-42-124-44v89" id="K"/><path d="M33 0v-248h34V0H33" id="L"/><path d="M143 4C61 4 22-44 18-125c-5-107 100-154 193-111 17 8 29 25 37 43l-32 9c-13-25-37-40-76-40-61 0-88 39-88 99 0 61 29 100 91 101 35 0 62-11 79-27v-45h-74v-28h105v86C228-13 192 4 143 4" id="M"/><path d="M185-189c-5-48-123-54-124 2 14 75 158 14 163 119 3 78-121 87-175 55-17-10-28-26-33-46l33-7c5 56 141 63 141-1 0-78-155-14-162-118-5-82 145-84 179-34 5 7 8 16 11 25" id="N"/><path d="M30 0v-248h187v28H63v79h144v27H63v87h162V0H30" id="O"/><path d="M233-177c-1 41-23 64-60 70L243 0h-38l-65-103H63V0H30v-248c88 3 205-21 203 71zM63-129c60-2 137 13 137-47 0-61-80-42-137-45v92" id="P"/><path d="M205 0l-28-72H64L36 0H1l101-248h38L239 0h-34zm-38-99l-47-123c-12 45-31 82-46 123h93" id="Q"/><path d="M30 0v-248h33v221h125V0H30" id="R"/><g id="c"><use transform="matrix(0.05,0,0,0.05,0,0)" xlink:href="#K"/><use transform="matrix(0.05,0,0,0.05,12,0)" xlink:href="#L"/><use transform="matrix(0.05,0,0,0.05,17,0)" xlink:href="#M"/><use transform="matrix(0.05,0,0,0.05,31,0)" xlink:href="#N"/><use transform="matrix(0.05,0,0,0.05,43,0)" xlink:href="#O"/><use transform="matrix(0.05,0,0,0.05,55,0)" xlink:href="#P"/><use transform="matrix(0.05,0,0,0.05,67.95,0)" xlink:href="#L"/><use transform="matrix(0.05,0,0,0.05,72.95,0)" xlink:href="#Q"/><use transform="matrix(0.05,0,0,0.05,84.95,0)" xlink:href="#R"/></g><path d="M117-194c89-4 53 116 60 194h-32v-121c0-31-8-49-39-48C34-167 62-67 57 0H25l-1-190h30c1 10-1 24 2 32 11-22 29-35 61-36" id="S"/><path d="M141-36C126-15 110 5 73 4 37 3 15-17 15-53c-1-64 63-63 125-63 3-35-9-54-41-54-24 1-41 7-42 31l-33-3c5-37 33-52 76-52 45 0 72 20 72 64v82c-1 20 7 32 28 27v20c-31 9-61-2-59-35zM48-53c0 20 12 33 32 33 41-3 63-29 60-74-43 2-92-5-92 41" id="T"/><path d="M210-169c-67 3-38 105-44 169h-31v-121c0-29-5-50-35-48C34-165 62-65 56 0H25l-1-190h30c1 10-1 24 2 32 10-44 99-50 107 0 11-21 27-35 58-36 85-2 47 119 55 194h-31v-121c0-29-5-49-35-48" id="U"/><g id="d"><use transform="matrix(0.05,0,0,0.05,0,0)" xlink:href="#G"/><use transform="matrix(0.05,0,0,0.05,10,0)" xlink:href="#D"/><use transform="matrix(0.05,0,0,0.05,19,0)" xlink:href="#E"/><use transform="matrix(0.05,0,0,0.05,29,0)" xlink:href="#F"/><use transform="matrix(0.05,0,0,0.05,34.95,0)" xlink:href="#S"/><use transform="matrix(0.05,0,0,0.05,44.95,0)" xlink:href="#T"/><use transform="matrix(0.05,0,0,0.05,54.95,0)" xlink:href="#U"/><use transform="matrix(0.05,0,0,0.05,69.9,0)" xlink:href="#E"/></g><path d="M137 0h-34L2-248h35l83 218 83-218h36" id="V"/><path d="M212-179c-10-28-35-45-73-45-59 0-87 40-87 99 0 60 29 101 89 101 43 0 62-24 78-52l27 14C228-24 195 4 139 4 59 4 22-46 18-125c-6-104 99-153 187-111 19 9 31 26 39 46" id="W"/><path d="M197 0v-115H63V0H30v-248h33v105h134v-105h34V0h-34" id="X"/><g id="e"><use transform="matrix(0.05,0,0,0.05,0,0)" xlink:href="#V"/><use transform="matrix(0.05,0,0,0.05,10.65,0)" xlink:href="#Q"/><use transform="matrix(0.05,0,0,0.05,22.65,0)" xlink:href="#P"/><use transform="matrix(0.05,0,0,0.05,35.6,0)" xlink:href="#W"/><use transform="matrix(0.05,0,0,0.05,48.550000000000004,0)" xlink:href="#X"/><use transform="matrix(0.05,0,0,0.05,61.5,0)" xlink:href="#Q"/><use transform="matrix(0.05,0,0,0.05,73.5,0)" xlink:href="#P"/></g><path d="M115-194c55 1 70 41 70 98S169 2 115 4C84 4 66-9 55-30l1 105H24l-1-265h31l2 30c10-21 28-34 59-34zm-8 174c40 0 45-34 45-75s-6-73-45-74c-42 0-51 32-51 76 0 43 10 73 51 73" id="Y"/><path d="M206 0h-36l-40-164L89 0H53L-1-190h32L70-26l43-164h34l41 164 42-164h31" id="Z"/><path d="M100-194c62-1 85 37 85 99 1 63-27 99-86 99S16-35 15-95c0-66 28-99 85-99zM99-20c44 1 53-31 53-75 0-43-8-75-51-75s-53 32-53 75 10 74 51 75" id="aa"/><g id="f"><use transform="matrix(0.05,0,0,0.05,0,0)" xlink:href="#Y"/><use transform="matrix(0.05,0,0,0.05,10,0)" xlink:href="#T"/><use transform="matrix(0.05,0,0,0.05,20,0)" xlink:href="#D"/><use transform="matrix(0.05,0,0,0.05,29,0)" xlink:href="#D"/><use transform="matrix(0.05,0,0,0.05,38,0)" xlink:href="#Z"/><use transform="matrix(0.05,0,0,0.05,50.95,0)" xlink:href="#aa"/><use transform="matrix(0.05,0,0,0.05,60.95,0)" xlink:href="#F"/><use transform="matrix(0.05,0,0,0.05,66.9,0)" xlink:href="#J"/></g><path d="M127-220V0H93v-220H8v-28h204v28h-85" id="ab"/><path d="M195 0l-74-108L45 0H8l94-129-87-119h37l69 98 67-98h37l-84 118L233 0h-38" id="ac"/><g id="g"><use transform="matrix(0.05,0,0,0.05,0,0)" xlink:href="#ab"/><use transform="matrix(0.05,0,0,0.05,10.950000000000001,0)" xlink:href="#O"/><use transform="matrix(0.05,0,0,0.05,22.950000000000003,0)" xlink:href="#ac"/><use transform="matrix(0.05,0,0,0.05,34.95,0)" xlink:href="#ab"/></g><path d="M143 0L79-87 56-68V0H24v-261h32v163l83-92h37l-77 82L181 0h-38" id="ad"/><g id="h"><use transform="matrix(0.05,0,0,0.05,0,0)" xlink:href="#K"/><use transform="matrix(0.05,0,0,0.05,12,0)" xlink:href="#aa"/><use transform="matrix(0.05,0,0,0.05,22,0)" xlink:href="#aa"/><use transform="matrix(0.05,0,0,0.05,32,0)" xlink:href="#ad"/><use transform="matrix(0.05,0,0,0.05,41,0)" xlink:href="#D"/></g><path d="M115-194c53 0 69 39 70 98 0 66-23 100-70 100C84 3 66-7 56-30L54 0H23l1-261h32v101c10-23 28-34 59-34zm-8 174c40 0 45-34 45-75 0-40-5-75-45-74-42 0-51 32-51 76 0 43 10 73 51 73" id="ae"/><g id="i"><use transform="matrix(0.05,0,0,0.05,0,0)" xlink:href="#ae"/><use transform="matrix(0.05,0,0,0.05,10,0)" xlink:href="#aa"/><use transform="matrix(0.05,0,0,0.05,20,0)" xlink:href="#aa"/><use transform="matrix(0.05,0,0,0.05,30,0)" xlink:href="#ad"/><use transform="matrix(0.05,0,0,0.05,39,0)" xlink:href="#H"/><use transform="matrix(0.05,0,0,0.05,49,0)" xlink:href="#I"/><use transform="matrix(0.05,0,0,0.05,52.95,0)" xlink:href="#J"/></g><g id="j"><use transform="matrix(0.05,0,0,0.05,0,0)" xlink:href="#I"/><use transform="matrix(0.05,0,0,0.05,3.95,0)" xlink:href="#D"/><use transform="matrix(0.05,0,0,0.05,12.949999999999998,0)" xlink:href="#ae"/><use transform="matrix(0.05,0,0,0.05,22.95,0)" xlink:href="#S"/></g><path d="M87 75C49 33 22-17 22-94c0-76 28-126 65-167h31c-38 41-64 92-64 168S80 34 118 75H87" id="af"/><path d="M27 0v-27h64v-190l-56 39v-29l58-41h29v221h61V0H27" id="ag"/><path d="M126-127c33 6 58 20 58 59 0 88-139 92-164 29-3-8-5-16-6-25l32-3c6 27 21 44 54 44 32 0 52-15 52-46 0-38-36-46-79-43v-28c39 1 72-4 72-42 0-27-17-43-46-43-28 0-47 15-49 41l-32-3c6-42 35-63 81-64 48-1 79 21 79 65 0 36-21 52-52 59" id="ah"/><path d="M33-261c38 41 65 92 65 168S71 34 33 75H2C39 34 66-17 66-93S39-220 2-261h31" id="ai"/><g id="k"><use transform="matrix(0.05,0,0,0.05,0,0)" xlink:href="#V"/><use transform="matrix(0.05,0,0,0.05,10.65,0)" xlink:href="#Q"/><use transform="matrix(0.05,0,0,0.05,22.65,0)" xlink:href="#P"/><use transform="matrix(0.05,0,0,0.05,35.6,0)" xlink:href="#W"/><use transform="matrix(0.05,0,0,0.05,48.550000000000004,0)" xlink:href="#X"/><use transform="matrix(0.05,0,0,0.05,61.5,0)" xlink:href="#Q"/><use transform="matrix(0.05,0,0,0.05,73.5,0)" xlink:href="#P"/><use transform="matrix(0.05,0,0,0.05,86.45,0)" xlink:href="#af"/><use transform="matrix(0.05,0,0,0.05,92.4,0)" xlink:href="#ag"/><use transform="matrix(0.05,0,0,0.05,102.4,0)" xlink:href="#ah"/><use transform="matrix(0.05,0,0,0.05,112.4,0)" xlink:href="#ai"/></g><path d="M59-47c-2 24 18 29 38 22v24C64 9 27 4 27-40v-127H5v-23h24l9-43h21v43h35v23H59v120" id="aj"/><path d="M106-169C34-169 62-67 57 0H25v-261h32l-1 103c12-21 28-36 61-36 89 0 53 116 60 194h-32v-121c2-32-8-49-39-48" id="ak"/><g id="l"><use transform="matrix(0.05,0,0,0.05,0,0)" xlink:href="#T"/><use transform="matrix(0.05,0,0,0.05,10,0)" xlink:href="#G"/><use transform="matrix(0.05,0,0,0.05,20,0)" xlink:href="#aj"/><use transform="matrix(0.05,0,0,0.05,25,0)" xlink:href="#ak"/><use transform="matrix(0.05,0,0,0.05,35,0)" xlink:href="#aa"/><use transform="matrix(0.05,0,0,0.05,45,0)" xlink:href="#F"/></g><g id="m"><use transform="matrix(0.05,0,0,0.05,0,0)" xlink:href="#V"/><use transform="matrix(0.05,0,0,0.05,10.65,0)" xlink:href="#Q"/><use transform="matrix(0.05,0,0,0.05,22.65,0)" xlink:href="#P"/><use transform="matrix(0.05,0,0,0.05,35.6,0)" xlink:href="#W"/><use transform="matrix(0.05,0,0,0.05,48.550000000000004,0)" xlink:href="#X"/><use transform="matrix(0.05,0,0,0.05,61.5,0)" xlink:href="#Q"/><use transform="matrix(0.05,0,0,0.05,73.5,0)" xlink:href="#P"/></g><path d="M24 0v-261h32V0H24" id="al"/><g id="n"><use transform="matrix(0.05,0,0,0.05,0,0)" xlink:href="#aj"/><use transform="matrix(0.05,0,0,0.05,5,0)" xlink:href="#I"/><use transform="matrix(0.05,0,0,0.05,8.95,0)" xlink:href="#aj"/><use transform="matrix(0.05,0,0,0.05,13.949999999999998,0)" xlink:href="#al"/><use transform="matrix(0.05,0,0,0.05,17.9,0)" xlink:href="#E"/></g><path d="M96-169c-40 0-48 33-48 73s9 75 48 75c24 0 41-14 43-38l32 2c-6 37-31 61-74 61-59 0-76-41-82-99-10-93 101-131 147-64 4 7 5 14 7 22l-32 3c-4-21-16-35-41-35" id="am"/><path d="M179-190L93 31C79 59 56 82 12 73V49c39 6 53-20 64-50L1-190h34L92-34l54-156h33" id="an"/><g id="o"><use transform="matrix(0.05,0,0,0.05,0,0)" xlink:href="#Y"/><use transform="matrix(0.05,0,0,0.05,10,0)" xlink:href="#G"/><use transform="matrix(0.05,0,0,0.05,20,0)" xlink:href="#ae"/><use transform="matrix(0.05,0,0,0.05,30,0)" xlink:href="#al"/><use transform="matrix(0.05,0,0,0.05,33.95,0)" xlink:href="#I"/><use transform="matrix(0.05,0,0,0.05,37.900000000000006,0)" xlink:href="#am"/><use transform="matrix(0.05,0,0,0.05,46.900000000000006,0)" xlink:href="#T"/><use transform="matrix(0.05,0,0,0.05,56.900000000000006,0)" xlink:href="#aj"/><use transform="matrix(0.05,0,0,0.05,61.900000000000006,0)" xlink:href="#I"/><use transform="matrix(0.05,0,0,0.05,65.85000000000001,0)" xlink:href="#aa"/><use transform="matrix(0.05,0,0,0.05,75.85000000000001,0)" xlink:href="#S"/><use transform="matrix(0.05,0,0,0.05,85.85000000000001,0)" xlink:href="#H"/><use transform="matrix(0.05,0,0,0.05,95.85000000000001,0)" xlink:href="#an"/><use transform="matrix(0.05,0,0,0.05,104.85000000000001,0)" xlink:href="#E"/><use transform="matrix(0.05,0,0,0.05,114.85000000000001,0)" xlink:href="#T"/><use transform="matrix(0.05,0,0,0.05,124.85000000000001,0)" xlink:href="#F"/></g><path d="M190 0L58-211 59 0H30v-248h39L202-35l-2-213h31V0h-41" id="ao"/><g id="p"><use transform="matrix(0.05,0,0,0.05,0,0)" xlink:href="#L"/><use transform="matrix(0.05,0,0,0.05,5,0)" xlink:href="#ao"/><use transform="matrix(0.05,0,0,0.05,17.950000000000003,0)" xlink:href="#ab"/></g><path d="M108 0H70L1-190h34L89-25l56-165h34" id="ap"/><g id="q"><use transform="matrix(0.05,0,0,0.05,0,0)" xlink:href="#F"/><use transform="matrix(0.05,0,0,0.05,5.95,0)" xlink:href="#E"/><use transform="matrix(0.05,0,0,0.05,15.949999999999998,0)" xlink:href="#ap"/><use transform="matrix(0.05,0,0,0.05,24.95,0)" xlink:href="#I"/><use transform="matrix(0.05,0,0,0.05,28.899999999999995,0)" xlink:href="#E"/><use transform="matrix(0.05,0,0,0.05,38.9,0)" xlink:href="#Z"/><use transform="matrix(0.05,0,0,0.05,51.85,0)" xlink:href="#H"/><use transform="matrix(0.05,0,0,0.05,61.85,0)" xlink:href="#am"/><use transform="matrix(0.05,0,0,0.05,70.85,0)" xlink:href="#aa"/><use transform="matrix(0.05,0,0,0.05,80.85,0)" xlink:href="#G"/><use transform="matrix(0.05,0,0,0.05,90.85,0)" xlink:href="#S"/><use transform="matrix(0.05,0,0,0.05,100.85,0)" xlink:href="#aj"/></g><g id="r"><use transform="matrix(0.05,0,0,0.05,0,0)" xlink:href="#L"/><use transform="matrix(0.05,0,0,0.05,5,0)" xlink:href="#ao"/><use transform="matrix(0.05,0,0,0.05,17.950000000000003,0)" xlink:href="#ab"/></g><g id="s"><use transform="matrix(0.05,0,0,0.05,0,0)" xlink:href="#P"/><use transform="matrix(0.05,0,0,0.05,12.950000000000001,0)" xlink:href="#E"/><use transform="matrix(0.05,0,0,0.05,22.950000000000003,0)" xlink:href="#ap"/><use transform="matrix(0.05,0,0,0.05,31.950000000000003,0)" xlink:href="#I"/><use transform="matrix(0.05,0,0,0.05,35.900000000000006,0)" xlink:href="#E"/><use transform="matrix(0.05,0,0,0.05,45.900000000000006,0)" xlink:href="#Z"/><use transform="matrix(0.05,0,0,0.05,58.85,0)" xlink:href="#D"/></g><g id="t"><use transform="matrix(0.05,0,0,0.05,0,0)" xlink:href="#F"/><use transform="matrix(0.05,0,0,0.05,5.95,0)" xlink:href="#E"/><use transform="matrix(0.05,0,0,0.05,15.949999999999998,0)" xlink:href="#ap"/><use transform="matrix(0.05,0,0,0.05,24.95,0)" xlink:href="#I"/><use transform="matrix(0.05,0,0,0.05,28.899999999999995,0)" xlink:href="#E"/><use transform="matrix(0.05,0,0,0.05,38.9,0)" xlink:href="#Z"/><use transform="matrix(0.05,0,0,0.05,51.85,0)" xlink:href="#H"/><use transform="matrix(0.05,0,0,0.05,61.85,0)" xlink:href="#I"/><use transform="matrix(0.05,0,0,0.05,65.8,0)" xlink:href="#J"/></g><g id="u"><use transform="matrix(0.05,0,0,0.05,0,0)" xlink:href="#K"/><use transform="matrix(0.05,0,0,0.05,12,0)" xlink:href="#L"/><use transform="matrix(0.05,0,0,0.05,17,0)" xlink:href="#M"/><use transform="matrix(0.05,0,0,0.05,31,0)" xlink:href="#L"/><use transform="matrix(0.05,0,0,0.05,36,0)" xlink:href="#ao"/><use transform="matrix(0.05,0,0,0.05,48.95,0)" xlink:href="#ab"/></g><g id="v"><use transform="matrix(0.05,0,0,0.05,0,0)" xlink:href="#G"/><use transform="matrix(0.05,0,0,0.05,10,0)" xlink:href="#D"/><use transform="matrix(0.05,0,0,0.05,19,0)" xlink:href="#E"/><use transform="matrix(0.05,0,0,0.05,29,0)" xlink:href="#F"/><use transform="matrix(0.05,0,0,0.05,34.95,0)" xlink:href="#S"/><use transform="matrix(0.05,0,0,0.05,44.95,0)" xlink:href="#T"/><use transform="matrix(0.05,0,0,0.05,54.95,0)" xlink:href="#U"/><use transform="matrix(0.05,0,0,0.05,69.9,0)" xlink:href="#E"/></g><g id="w"><use transform="matrix(0.05,0,0,0.05,0,0)" xlink:href="#V"/><use transform="matrix(0.05,0,0,0.05,10.65,0)" xlink:href="#Q"/><use transform="matrix(0.05,0,0,0.05,22.65,0)" xlink:href="#P"/><use transform="matrix(0.05,0,0,0.05,35.6,0)" xlink:href="#W"/><use transform="matrix(0.05,0,0,0.05,48.550000000000004,0)" xlink:href="#X"/><use transform="matrix(0.05,0,0,0.05,61.5,0)" xlink:href="#Q"/><use transform="matrix(0.05,0,0,0.05,73.5,0)" xlink:href="#P"/></g><path d="M177-190C167-65 218 103 67 71c-23-6-38-20-44-43l32-5c15 47 100 32 89-28v-30C133-14 115 1 83 1 29 1 15-40 15-95c0-56 16-97 71-98 29-1 48 16 59 35 1-10 0-23 2-32h30zM94-22c36 0 50-32 50-73 0-42-14-75-50-75-39 0-46 34-46 75s6 73 46 73" id="aq"/><g id="x"><use transform="matrix(0.05,0,0,0.05,0,0)" xlink:href="#F"/><use transform="matrix(0.05,0,0,0.05,5.95,0)" xlink:href="#E"/><use transform="matrix(0.05,0,0,0.05,15.949999999999998,0)" xlink:href="#ap"/><use transform="matrix(0.05,0,0,0.05,24.95,0)" xlink:href="#I"/><use transform="matrix(0.05,0,0,0.05,28.899999999999995,0)" xlink:href="#E"/><use transform="matrix(0.05,0,0,0.05,38.9,0)" xlink:href="#Z"/><use transform="matrix(0.05,0,0,0.05,51.85,0)" xlink:href="#H"/><use transform="matrix(0.05,0,0,0.05,61.85,0)" xlink:href="#F"/><use transform="matrix(0.05,0,0,0.05,67.8,0)" xlink:href="#T"/><use transform="matrix(0.05,0,0,0.05,77.8,0)" xlink:href="#aj"/><use transform="matrix(0.05,0,0,0.05,82.8,0)" xlink:href="#I"/><use transform="matrix(0.05,0,0,0.05,86.75,0)" xlink:href="#S"/><use transform="matrix(0.05,0,0,0.05,96.75,0)" xlink:href="#aq"/></g><path d="M141 0L90-78 38 0H4l68-98-65-92h35l48 74 47-74h35l-64 92 68 98h-35" id="ar"/><g id="y"><use transform="matrix(0.05,0,0,0.05,0,0)" xlink:href="#F"/><use transform="matrix(0.05,0,0,0.05,5.95,0)" xlink:href="#E"/><use transform="matrix(0.05,0,0,0.05,15.949999999999998,0)" xlink:href="#ap"/><use transform="matrix(0.05,0,0,0.05,24.95,0)" xlink:href="#I"/><use transform="matrix(0.05,0,0,0.05,28.899999999999995,0)" xlink:href="#E"/><use transform="matrix(0.05,0,0,0.05,38.9,0)" xlink:href="#Z"/><use transform="matrix(0.05,0,0,0.05,51.85,0)" xlink:href="#H"/><use transform="matrix(0.05,0,0,0.05,61.85,0)" xlink:href="#aj"/><use transform="matrix(0.05,0,0,0.05,66.85,0)" xlink:href="#E"/><use transform="matrix(0.05,0,0,0.05,76.85,0)" xlink:href="#ar"/><use transform="matrix(0.05,0,0,0.05,85.85,0)" xlink:href="#aj"/></g><path d="M101-251c68 0 85 55 85 127S166 4 100 4C33 4 14-52 14-124c0-73 17-127 87-127zm-1 229c47 0 54-49 54-102s-4-102-53-102c-51 0-55 48-55 102 0 53 5 102 54 102" id="as"/><g id="z"><use transform="matrix(0.05,0,0,0.05,0,0)" xlink:href="#V"/><use transform="matrix(0.05,0,0,0.05,10.65,0)" xlink:href="#Q"/><use transform="matrix(0.05,0,0,0.05,22.65,0)" xlink:href="#P"/><use transform="matrix(0.05,0,0,0.05,35.6,0)" xlink:href="#W"/><use transform="matrix(0.05,0,0,0.05,48.550000000000004,0)" xlink:href="#X"/><use transform="matrix(0.05,0,0,0.05,61.5,0)" xlink:href="#Q"/><use transform="matrix(0.05,0,0,0.05,73.5,0)" xlink:href="#P"/><use transform="matrix(0.05,0,0,0.05,86.45,0)" xlink:href="#af"/><use transform="matrix(0.05,0,0,0.05,92.4,0)" xlink:href="#ag"/><use transform="matrix(0.05,0,0,0.05,102.4,0)" xlink:href="#as"/><use transform="matrix(0.05,0,0,0.05,112.4,0)" xlink:href="#as"/><use transform="matrix(0.05,0,0,0.05,122.4,0)" xlink:href="#as"/><use transform="matrix(0.05,0,0,0.05,132.4,0)" xlink:href="#as"/><use transform="matrix(0.05,0,0,0.05,142.4,0)" xlink:href="#ai"/></g><g id="A"><use transform="matrix(0.05,0,0,0.05,0,0)" xlink:href="#aj"/><use transform="matrix(0.05,0,0,0.05,5,0)" xlink:href="#I"/><use transform="matrix(0.05,0,0,0.05,8.95,0)" xlink:href="#U"/><use transform="matrix(0.05,0,0,0.05,23.9,0)" xlink:href="#E"/><use transform="matrix(0.05,0,0,0.05,33.9,0)" xlink:href="#H"/><use transform="matrix(0.05,0,0,0.05,43.9,0)" xlink:href="#am"/><use transform="matrix(0.05,0,0,0.05,52.900000000000006,0)" xlink:href="#F"/><use transform="matrix(0.05,0,0,0.05,58.85,0)" xlink:href="#E"/><use transform="matrix(0.05,0,0,0.05,68.85,0)" xlink:href="#T"/><use transform="matrix(0.05,0,0,0.05,78.85,0)" xlink:href="#aj"/><use transform="matrix(0.05,0,0,0.05,83.85,0)" xlink:href="#E"/><use transform="matrix(0.05,0,0,0.05,93.85,0)" xlink:href="#J"/></g><path d="M240 0l2-218c-23 76-54 145-80 218h-23L58-218 59 0H30v-248h44l77 211c21-75 51-140 76-211h43V0h-30" id="at"/><path d="M30-248c87 1 191-15 191 75 0 78-77 80-158 76V0H30v-248zm33 125c57 0 124 11 124-50 0-59-68-47-124-48v98" id="au"/><g id="B"><use transform="matrix(0.05,0,0,0.05,0,0)" xlink:href="#ab"/><use transform="matrix(0.05,0,0,0.05,10.950000000000001,0)" xlink:href="#L"/><use transform="matrix(0.05,0,0,0.05,15.950000000000001,0)" xlink:href="#at"/><use transform="matrix(0.05,0,0,0.05,30.900000000000002,0)" xlink:href="#O"/><use transform="matrix(0.05,0,0,0.05,42.900000000000006,0)" xlink:href="#N"/><use transform="matrix(0.05,0,0,0.05,54.900000000000006,0)" xlink:href="#ab"/><use transform="matrix(0.05,0,0,0.05,64.5,0)" xlink:href="#Q"/><use transform="matrix(0.05,0,0,0.05,76.5,0)" xlink:href="#at"/><use transform="matrix(0.05,0,0,0.05,91.45,0)" xlink:href="#au"/></g></defs></g></svg>